<svg xmlns="http://www.w3.org/2000/svg" style="display:none">
  <symbol id="icon-board" viewBox="0 0 24 24">
    <rect x="3" y="4" width="18" height="14" rx="2" fill="none" stroke="currentColor" stroke-width="2"/>
    <path d="M3 9h18M8 4v14M16 4v14" fill="none" stroke="currentColor" stroke-width="2"/>
  </symbol>
  <symbol id="icon-qr" viewBox="0 0 24 24">
    <path d="M4 4h6v6H4zM14 4h6v6h-6zM4 14h6v6H4z" fill="none" stroke="currentColor" stroke-width="2"/>
    <path d="M16 14h2v2h-2zM20 14h0v0M14 18h2v2h-2zM18 18h2v2h-2z" fill="currentColor"/>
    <path d="M14 14h2v2h-2zM18 14h2v2h-2zM14 18h2v2h-2z" fill="currentColor"/>
  </symbol>
  <symbol id="icon-timer" viewBox="0 0 24 24">
    <circle cx="12" cy="13" r="8" fill="none" stroke="currentColor" stroke-width="2"/>
    <path d="M9 2h6M12 13V9M12 13l4 2" fill="none" stroke="currentColor" stroke-width="2" stroke-linecap="round"/>
  </symbol>
</svg>
